<?xml version="1.0" standalone="no"?>
<!DOCTYPE svg PUBLIC "-//W3C//DTD SVG 20010904//EN"
 "http://www.w3.org/TR/2001/REC-SVG-20010904/DTD/svg10.dtd">
<svg version="1.0" xmlns="http://www.w3.org/2000/svg"
 width="1600.000000pt" height="900.000000pt" viewBox="0 0 1600.000000 900.000000"
 preserveAspectRatio="xMidYMid meet">

<g transform="translate(0.000000,900.000000) scale(0.100000,-0.100000)"
fill="#000000" stroke="none">
<path d="M9510 8800 c0 -6 -35 -10 -86 -10 -119 0 -551 -36 -719 -61 -224 -32
-492 -78 -595 -100 -160 -36 -532 -128 -595 -148 -33 -11 -107 -34 -165 -51
-132 -41 -276 -88 -315 -105 -16 -7 -46 -18 -65 -23 -46 -14 -167 -59 -207
-77 -17 -8 -34 -15 -38 -15 -4 0 -33 -11 -64 -24 -31 -14 -87 -37 -126 -52
-38 -15 -104 -42 -145 -61 -41 -19 -93 -43 -115 -53 -222 -101 -465 -223 -650
-325 -102 -56 -254 -143 -290 -166 -22 -14 -69 -43 -105 -64 -87 -52 -425
-277 -527 -351 -372 -271 -632 -493 -949 -809 -316 -315 -441 -457 -661 -750
-113 -151 -344 -505 -329 -505 1 0 29 9 62 20 32 11 88 30 124 41 36 12 70 25
75 29 6 5 26 11 45 15 l35 6 24 -60 c13 -34 27 -61 30 -61 4 0 15 15 25 33 38
66 213 306 327 446 388 482 888 945 1454 1345 130 92 387 261 440 290 17 9 59
35 95 57 228 143 674 374 1005 521 50 22 104 46 120 53 17 7 53 22 80 33 28
11 88 35 135 54 47 20 96 39 110 43 14 4 39 13 55 20 41 18 335 116 465 155
58 17 123 38 145 46 59 20 307 82 545 135 233 52 427 85 740 124 374 46 952
57 1300 24 155 -14 479 -64 615 -93 171 -37 459 -117 493 -136 9 -5 54 -24 99
-41 l82 -31 98 17 c177 30 524 30 631 -1 13 -4 13 -2 -2 8 -143 99 -425 241
-631 318 -170 63 -229 84 -300 107 -387 122 -916 205 -1387 220 -109 3 -198
10 -198 14 0 5 -43 9 -95 9 -57 0 -95 -4 -95 -10z"/>
<path d="M12847 4005 c-109 -49 -333 -125 -370 -125 -32 0 -46 -13 -113 -105
-161 -222 -262 -352 -370 -475 -232 -264 -510 -535 -780 -761 -116 -96 -317
-257 -350 -279 -13 -8 -83 -58 -156 -111 -114 -82 -269 -186 -410 -275 -21
-13 -55 -35 -75 -48 -39 -24 -73 -44 -338 -194 -120 -68 -457 -238 -630 -318
-49 -22 -305 -129 -375 -157 -36 -14 -117 -45 -180 -70 -164 -65 -542 -189
-700 -231 -74 -20 -149 -41 -166 -46 -63 -21 -440 -104 -564 -126 -47 -8 -130
-23 -185 -34 -55 -10 -149 -24 -210 -30 -60 -6 -121 -13 -135 -15 -254 -43
-920 -56 -1282 -25 -339 29 -740 109 -1037 207 -217 71 -312 110 -521 212
-411 201 -779 520 -1015 881 -61 94 -186 339 -215 422 -104 303 -141 520 -144
833 l-2 220 -52 120 c-85 192 -108 244 -148 343 l-39 93 -12 -43 c-28 -93 -73
-329 -82 -423 -27 -283 -32 -355 -27 -372 3 -10 10 -87 16 -172 11 -161 51
-388 94 -531 27 -94 71 -224 85 -255 5 -11 26 -58 47 -105 150 -333 380 -634
677 -889 168 -144 332 -262 457 -330 19 -10 58 -31 85 -46 143 -77 417 -205
441 -205 5 0 21 -6 35 -14 41 -21 323 -111 459 -146 356 -93 928 -170 1254
-170 71 0 116 -4 116 -10 0 -5 23 -10 50 -10 28 0 50 5 50 10 0 6 45 10 114
10 223 0 672 42 1031 95 270 41 694 138 1000 230 50 14 97 28 105 30 87 20
639 216 747 266 24 10 45 19 49 19 6 0 120 48 179 75 17 8 102 46 190 85 282
126 761 382 967 516 37 24 69 44 71 44 4 0 325 213 417 277 90 63 296 220 435
332 487 393 969 899 1293 1359 132 186 145 206 214 326 39 67 79 136 90 154
11 17 18 32 16 31 -2 0 -47 -20 -101 -44z"/>
</g>
</svg>
