<svg viewBox="0 0 55 92" fill="none" xmlns="http://www.w3.org/2000/svg">
<path d="M2.47656 32.229H34.5234C35.3388 32.229 36 32.8902 36 33.7056V88.6226C36 89.4379 35.3388 90.0991 34.5234 90.0991H2.47656C1.66118 90.0991 1 89.4379 1 88.6226V33.7056C1 32.8902 1.66118 32.229 2.47656 32.229Z" stroke="white" stroke-width="2"/>
<path d="M20.4766 1.229H52.5234C53.3388 1.229 54 1.89019 54 2.70557V57.6226C54 58.4379 53.3388 59.0991 52.5234 59.0991H20.4766C19.6612 59.0991 19 58.4379 19 57.6226V2.70557C19 1.89018 19.6612 1.229 20.4766 1.229Z" stroke="white" stroke-width="2"/>
</svg>
