<svg viewBox="0 0 58 73" fill="none" xmlns="http://www.w3.org/2000/svg">
<path d="M1.33887 40.75H18.6611C18.9862 40.75 19.25 41.0138 19.25 41.3389V71.0234C19.25 71.3485 18.9862 71.6123 18.6611 71.6123H1.33887C1.0138 71.6123 0.75 71.3485 0.75 71.0234V41.3389C0.75 41.0138 1.0138 40.75 1.33887 40.75Z" stroke="#FFD237" stroke-width="1.5"/>
<path d="M13.3389 16.75H30.6611C30.9862 16.75 31.25 17.0138 31.25 17.3389V47.0234C31.25 47.3485 30.9862 47.6123 30.6611 47.6123H13.3389C13.0138 47.6123 12.75 47.3485 12.75 47.0234V17.3389C12.75 17.0138 13.0138 16.75 13.3389 16.75Z" stroke="#FFD237" stroke-width="1.5"/>
<path d="M28.3389 24.75H45.6611C45.9862 24.75 46.25 25.0138 46.25 25.3389V55.0234C46.25 55.3485 45.9862 55.6123 45.6611 55.6123H28.3389C28.0138 55.6123 27.75 55.3485 27.75 55.0234V25.3389C27.75 25.0138 28.0138 24.75 28.3389 24.75Z" stroke="#FFD237" stroke-width="1.5"/>
<path d="M39.3389 0.75H56.6611C56.9862 0.75 57.25 1.01381 57.25 1.33887V31.0234C57.25 31.3485 56.9862 31.6123 56.6611 31.6123H39.3389C39.0138 31.6123 38.75 31.3485 38.75 31.0234V1.33887C38.75 1.0138 39.0138 0.75 39.3389 0.75Z" stroke="#FFD237" stroke-width="1.5"/>
</svg>